<svg width="20" height="15" viewBox="0 0 20 15" fill="none" xmlns="http://www.w3.org/2000/svg">
<path d="M6.84589 9.46428C6.44367 10.503 6.05363 11.5172 5.6636 12.5253C5.48077 13.0019 5.29185 13.4723 5.11512 13.9489C5.04199 14.1383 4.92619 14.2177 4.72508 14.2177C3.24418 14.2177 1.75718 14.2177 0.276273 14.2116C-0.0162514 14.2116 -0.0528169 14.1444 0.0568798 13.8511C1.06853 11.2056 2.07408 8.55391 3.08573 5.90224C3.79266 4.03874 4.4935 2.17524 5.20044 0.305626C5.21872 0.256748 5.237 0.207869 5.25528 0.1651C5.3406 -0.0731838 5.44421 -0.0304149 5.56 0.146771C5.86471 0.629448 6.16942 1.11213 6.47414 1.58869C7.58329 3.35444 8.69245 5.12018 9.8077 6.87982C9.98443 7.16087 10.021 7.16087 10.1977 6.88593C11.4166 4.97355 12.6354 3.06117 13.8482 1.14878C14.0371 0.849402 14.2321 0.55002 14.4332 0.256748C14.4759 0.189539 14.5125 0.0978918 14.6039 0.104002C14.7197 0.110111 14.738 0.220089 14.7684 0.299517C15.3961 1.94306 16.0177 3.59272 16.6455 5.23627C17.4743 7.41137 18.3092 9.58648 19.1441 11.7616C19.4183 12.4764 19.6804 13.1913 19.9607 13.9C20.0521 14.1322 19.9851 14.23 19.7474 14.23C18.2422 14.23 16.743 14.23 15.2377 14.23C15.0427 14.23 14.9513 14.1261 14.8842 13.955C14.3723 12.5925 13.8543 11.23 13.3424 9.87364C13.3302 9.83698 13.3241 9.79421 13.2997 9.75755C13.2327 9.65369 13.251 9.45206 13.1108 9.44595C12.9889 9.43984 12.9706 9.62925 12.9158 9.73311C12.0077 11.4133 11.1058 13.0996 10.1977 14.7798C10.149 14.8654 10.1307 14.9937 10.0088 14.9998C9.88692 15.0059 9.86255 14.8715 9.81379 14.786C8.89356 13.0996 7.97332 11.4133 7.05309 9.727C6.99824 9.63536 6.97996 9.5376 6.84589 9.46428Z" fill="#0E1B59" fill-opacity="0.7"/>
</svg>
