<svg width="20" height="21" viewBox="0 0 20 21" fill="none" xmlns="http://www.w3.org/2000/svg">
<path d="M13.9957 20.0309C12.9365 19.7316 11.8082 19.5819 10.8181 19.1214C6.28209 16.9916 2.92036 13.6183 0.767466 9.09378C0.076699 7.63166 -0.211121 6.06592 0.168801 4.44262C0.479646 3.09562 1.28554 2.08249 2.47136 1.41475C3.16213 1.02332 3.93348 1.23055 4.63576 1.48383C4.78543 1.54139 4.91207 1.80619 4.96963 1.99039C5.39561 3.2568 5.81007 4.53472 6.23604 5.81264C6.40873 6.33071 6.33965 6.77971 5.94822 7.19417C5.61435 7.53955 5.31502 7.91948 5.00417 8.27637C4.72786 8.58722 4.70484 8.92109 4.90056 9.2895C6.22453 11.7878 8.13565 13.6874 10.6339 15.0229C11.0023 15.2186 11.3247 15.184 11.647 14.9193C12.027 14.5969 12.4069 14.2745 12.7753 13.9407C13.1322 13.6183 13.5351 13.5032 13.9957 13.6644C15.3427 14.1018 16.6896 14.5393 18.0366 14.9998C18.2093 15.0574 18.4281 15.1956 18.4741 15.3337C18.6929 16.1281 18.9231 16.934 18.3705 17.7053C17.3113 19.1905 15.8838 19.9388 14.0532 19.9043C14.0302 19.9273 14.0187 19.9734 13.9957 20.0309Z" fill="#0E1B59" fill-opacity="0.7"/>
<path d="M10.5763 0.0102336C15.9413 0.194438 20.1665 4.70745 19.8902 10.1185C19.8787 10.4063 19.706 10.7862 19.4872 10.9128C19.257 11.051 18.7964 11.0395 18.6007 10.8898C18.382 10.7171 18.2438 10.3142 18.2323 10.0033C18.1748 7.49354 17.3113 5.36368 15.4002 3.69432C13.8575 2.34733 12.0384 1.73715 10.0237 1.6911C9.88555 1.6911 9.75891 1.6911 9.62076 1.67959C9.12571 1.62202 8.83789 1.34572 8.83789 0.850667C8.83789 0.36713 9.1142 0.0562847 9.60925 0.0102336C9.87404 -0.012792 10.1734 0.0102336 10.5763 0.0102336Z" fill="#0E1B59" fill-opacity="0.7"/>
<path d="M9.97723 3.49865C13.5922 3.55621 16.4474 6.49198 16.3899 10.107C16.3783 10.7978 16.0905 11.1662 15.5379 11.1777C14.9853 11.1892 14.6975 10.8208 14.6744 10.13C14.6054 7.37846 12.5676 5.29465 9.89664 5.21406C9.06772 5.19103 8.66477 4.8917 8.69931 4.31606C8.73385 3.75193 9.1368 3.48714 9.97723 3.49865Z" fill="#0E1B59" fill-opacity="0.7"/>
</svg>
