<svg width="28" height="17" viewBox="0 0 28 17" fill="none" xmlns="http://www.w3.org/2000/svg">
<path d="M13.517 16.7168C10.7523 16.7168 7.98753 16.7256 5.22717 16.7125C4.4153 16.7081 3.64292 16.5237 2.97587 16.0366C2.52825 15.7075 2.26494 15.273 2.20789 14.6981C2.09818 13.5703 1.94897 12.4468 1.81731 11.3234C1.79976 11.1786 1.73393 11.1127 1.60228 11.0601C0.14091 10.4896 -0.43837 8.88778 0.360335 7.54051C0.882565 6.66282 1.69882 6.26785 2.71256 6.37318C3.63854 6.46972 4.28803 6.98318 4.66983 7.83015C5.05602 8.6903 5.43782 9.55044 5.81523 10.4106C5.88105 10.5598 5.97321 10.5071 6.06537 10.4808C6.64026 10.336 7.20638 10.1648 7.78566 10.042C9.05832 9.76548 10.3441 9.58116 11.6387 9.46706C13.2274 9.32663 14.8116 9.36612 16.3871 9.54166C17.9318 9.7172 19.4634 9.99368 20.9555 10.4589C21.1179 10.5115 21.2013 10.5115 21.2846 10.3184C21.6664 9.42756 22.0482 8.53231 22.4783 7.66339C23.0839 6.45217 24.5716 5.96943 25.796 6.65404C26.7088 7.1631 27.1433 7.97936 27.0467 9.02821C26.959 9.9849 26.4367 10.652 25.5503 11.0206C25.344 11.1084 25.265 11.2137 25.2387 11.4287C25.1158 12.5829 24.9973 13.7414 24.8349 14.8912C24.7428 15.5583 24.2864 15.9927 23.7027 16.278C23.062 16.594 22.3818 16.7212 21.6664 16.7212C18.9587 16.7125 16.2379 16.7168 13.517 16.7168Z" fill="#0E1B59" fill-opacity="0.7"/>
<path d="M2.08496 5.07419C2.15079 4.64412 2.16834 4.20966 2.28244 3.80592C2.85295 1.83548 4.14755 0.593543 6.1487 0.123975C6.53489 0.0318165 6.94741 0.0098741 7.34676 0.00548561C11.4763 -0.00329137 15.6103 0.00109712 19.7398 0.00109712C20.9642 0.00109712 22.0789 0.330234 23.0356 1.107C24.2688 2.10757 24.9139 3.40656 24.9534 4.99959C24.9534 5.02153 24.9446 5.03908 24.9358 5.07419C24.7076 5.08735 24.475 5.08297 24.2468 5.11369C22.8425 5.28923 21.8463 6.02649 21.2495 7.30354C21.0432 7.74678 20.8414 8.1944 20.6483 8.64203C20.5956 8.76491 20.5342 8.8044 20.3981 8.77368C18.4496 8.29534 16.4529 8.21196 14.4605 8.13297C12.2619 8.04958 10.0764 8.23829 7.9041 8.54987C7.48719 8.61131 7.07028 8.70347 6.65777 8.80002C6.52611 8.83074 6.47345 8.80002 6.42518 8.68591C6.24964 8.27779 6.04338 7.87843 5.88539 7.46592C5.33683 6.01333 3.84036 4.98642 2.22978 5.09613C2.20345 5.09613 2.17712 5.08735 2.08496 5.07419Z" fill="#0E1B59" fill-opacity="0.7"/>
</svg>
