<svg width="21" height="20" viewBox="0 0 21 20" fill="none" xmlns="http://www.w3.org/2000/svg">
<path d="M0 0C3.33505 0 6.6598 0 10 0C10 6.6701 10 13.3247 10 20C6.66495 20 3.34534 20 0 20C0 13.3402 0 6.6804 0 0ZM3.70561 7.54571C2.92331 7.54571 2.18219 7.54056 1.44107 7.55086C1.39475 7.55086 1.30726 7.65388 1.30211 7.71053C1.29182 8.40587 1.29182 9.09606 1.30211 9.7914C1.30211 9.85321 1.41534 9.96652 1.4771 9.96652C2.16161 9.98197 2.84611 9.98197 3.53062 9.97167C3.58724 9.97167 3.69532 9.87381 3.69532 9.81715C3.70561 9.07546 3.70561 8.33376 3.70561 7.54571ZM8.69789 4.98068C8.69789 4.19778 8.70304 3.44579 8.6876 2.68864C8.6876 2.63714 8.57437 2.54958 8.50746 2.54442C7.83325 2.53412 7.15389 2.53927 6.47452 2.53412C6.32527 2.53412 6.27895 2.59593 6.27895 2.72985C6.27895 3.40973 6.2841 4.08447 6.2738 4.76436C6.2738 4.94463 6.351 4.98069 6.51055 4.97553C6.80906 4.97038 7.11271 4.97553 7.41122 4.97553C7.83839 4.98069 8.25528 4.98068 8.69789 4.98068ZM8.6876 7.54571C7.91559 7.54571 7.16933 7.54056 6.4282 7.55601C6.38188 7.55601 6.29439 7.69508 6.29439 7.76719C6.2841 8.42647 6.29439 9.08576 6.2841 9.74504C6.2841 9.92532 6.34586 9.98197 6.52084 9.98197C6.95831 9.97167 7.39578 9.97682 7.83325 9.97682C8.11117 9.97682 8.39424 9.97682 8.6876 9.97682C8.6876 9.15787 8.6876 8.36982 8.6876 7.54571ZM1.31755 2.55988C1.31755 3.37368 1.31755 4.16688 1.31755 4.98068C2.07411 4.98068 2.81009 4.98068 3.54606 4.98068C3.70561 4.98068 3.71076 4.86737 3.71076 4.74891C3.71076 4.27504 3.71076 3.80634 3.71076 3.33247C3.71076 3.08009 3.71076 2.82256 3.71076 2.55473C2.89243 2.55988 2.11529 2.55988 1.31755 2.55988ZM6.28924 14.9524C7.06125 14.9524 7.80237 14.9524 8.54864 14.9524C8.71848 14.9524 8.69789 14.8184 8.69789 14.7103C8.69789 14.1798 8.69789 13.6492 8.69789 13.1187C8.69789 12.9333 8.69789 12.7479 8.69789 12.5418C7.91559 12.5418 7.16933 12.5367 6.4282 12.547C6.38188 12.547 6.29439 12.65 6.29439 12.7067C6.28924 13.4432 6.28924 14.1798 6.28924 14.9524ZM1.29182 14.9524C2.06897 14.9524 2.81523 14.9575 3.55636 14.9421C3.60782 14.9421 3.69532 14.8236 3.69532 14.7618C3.70561 14.0819 3.70046 13.4072 3.70046 12.7273C3.70046 12.6037 3.66444 12.5367 3.52548 12.5367C2.84097 12.5418 2.15131 12.5367 1.4668 12.5367C1.33299 12.5367 1.28667 12.5934 1.28667 12.7221C1.29696 13.4535 1.29182 14.1798 1.29182 14.9524Z" fill="#0E1B59" fill-opacity="0.7"/>
<path d="M11 5C14.335 5 17.6598 5 21 5C21 11.6701 21 13.3248 21 20.0001C17.665 20.0001 14.3453 20.0001 11 20.0001C11 13.3403 11 11.6804 11 5ZM14.7056 7.54577C13.9233 7.54577 13.1822 7.54062 12.4411 7.55092C12.3948 7.55092 12.3073 7.65393 12.3021 7.71059C12.2918 8.40593 12.2918 9.09612 12.3021 9.79146C12.3021 9.85326 12.4153 9.96658 12.4771 9.96658C13.1616 9.98203 13.8461 9.98203 14.5306 9.97173C14.5872 9.97173 14.6953 9.87387 14.6953 9.81721C14.7056 9.07551 14.7056 8.33382 14.7056 7.54577ZM19.6876 7.54577C18.9156 7.54577 18.1693 7.54062 17.4282 7.55607C17.3819 7.55607 17.2944 7.69514 17.2944 7.76725C17.2841 8.42653 17.2944 9.08581 17.2841 9.7451C17.2841 9.92537 17.3459 9.98203 17.5208 9.98203C17.9583 9.97173 18.3958 9.97688 18.8332 9.97688C19.1112 9.97688 19.3942 9.97688 19.6876 9.97688C19.6876 9.15792 19.6876 8.36987 19.6876 7.54577ZM17.2892 14.9524C18.0612 14.9524 18.8024 14.9524 19.5486 14.9524C19.7185 14.9524 19.6979 14.8185 19.6979 14.7103C19.6979 14.1798 19.6979 13.6493 19.6979 13.1188C19.6979 12.9334 19.6979 12.7479 19.6979 12.5419C18.9156 12.5419 18.1693 12.5368 17.4282 12.5471C17.3819 12.5471 17.2944 12.6501 17.2944 12.7067C17.2892 13.4433 17.2892 14.1798 17.2892 14.9524ZM12.2918 14.9524C13.069 14.9524 13.8152 14.9576 14.5564 14.9421C14.6078 14.9421 14.6953 14.8236 14.6953 14.7618C14.7056 14.082 14.7005 13.4072 14.7005 12.7273C14.7005 12.6037 14.6644 12.5368 14.5255 12.5368C13.841 12.5419 13.1513 12.5368 12.4668 12.5368C12.333 12.5368 12.2867 12.5934 12.2867 12.7222C12.297 13.4536 12.2918 14.1798 12.2918 14.9524Z" fill="#0E1B59" fill-opacity="0.7"/>
</svg>
