<svg width="22" height="20" viewBox="0 0 22 20" fill="none" xmlns="http://www.w3.org/2000/svg">
<path d="M8.8974 20C7.75099 20 6.81641 19.0654 6.81641 17.919V2.081C6.82887 0.93458 7.75099 0 8.8974 0C10.0438 0 10.9784 0.93458 10.9784 2.081V17.9315C10.9784 19.0779 10.0438 20 8.8974 20Z" fill="#57608B"/>
<path d="M14.0937 20C12.9473 20 12.0127 19.0654 12.0127 17.919V2.081C12.0127 0.93458 12.9473 0 14.0937 0C15.2401 0 16.1747 0.93458 16.1747 2.081V17.9315C16.1747 19.0779 15.2401 20 14.0937 20Z" fill="#57608B"/>
<path d="M19.29 20C18.1436 20 17.209 19.0654 17.209 17.919V2.081C17.209 0.93458 18.1436 0 19.29 0C20.4364 0 21.371 0.93458 21.371 2.081V17.9315C21.371 19.0779 20.4364 20 19.29 20Z" fill="#57608B"/>
<path d="M9.55763 5.38323H0.722741C0.323988 5.38323 0 5.05924 0 4.66049C0 4.26173 0.323988 3.93774 0.722741 3.93774H9.55763C9.95639 3.93774 10.2804 4.26173 10.2804 4.66049C10.2804 5.05924 9.95639 5.38323 9.55763 5.38323Z" fill="#57608B"/>
<path d="M9.55763 15.7259H0.722741C0.323988 15.7259 0 15.4019 0 15.0031C0 14.6044 0.323988 14.2804 0.722741 14.2804H9.55763C9.95639 14.2804 10.2804 14.6044 10.2804 15.0031C10.2804 15.4019 9.95639 15.7259 9.55763 15.7259Z" fill="#57608B"/>
</svg>
