<svg width="14" height="20" viewBox="0 0 14 20" fill="none" xmlns="http://www.w3.org/2000/svg">
<path d="M0.0269288 10.0781C0.0269288 7.29167 0.0529705 4.53125 0.000887174 1.74479C-0.0251545 0.520833 0.52172 0 1.6936 0C5.15714 0 8.62068 0 12.1103 0C13.2301 0 13.7509 0.546875 13.7509 1.69271C13.7248 7.23958 13.7248 12.7865 13.7509 18.3333C13.7509 19.4792 13.2561 20 12.1103 20C8.59464 19.974 5.07901 19.974 1.56339 20C0.469637 20 0.000887174 19.5052 0.000887174 18.4115C0.0269288 15.625 0.0269288 12.8646 0.0269288 10.0781ZM1.27693 1.27604C1.27693 7.13542 1.27693 12.8906 1.27693 18.6719C5.05297 18.6719 8.75089 18.6719 12.4488 18.6719C12.4488 12.8385 12.4488 7.08333 12.4488 1.27604C8.72484 1.27604 5.05297 1.27604 1.27693 1.27604Z" fill="#0E1B59" fill-opacity="0.7"/>
<path d="M1.27734 1.276C5.05339 1.276 8.72526 1.276 12.4492 1.276C12.4492 7.08329 12.4492 12.8385 12.4492 18.6718C8.72526 18.6718 5.05339 18.6718 1.27734 18.6718C1.27734 12.8906 1.27734 7.13538 1.27734 1.276ZM5.05339 11.302C5.73047 12.1875 6.27734 12.8906 6.8763 13.6718C7.5013 12.8385 8.04818 12.1354 8.67318 11.302C7.39714 11.302 6.35547 11.302 5.05339 11.302ZM6.85026 6.32808C6.22526 7.13538 5.67839 7.86454 5.05339 8.69788C6.32943 8.69788 7.39713 8.69788 8.62109 8.69788C8.02213 7.89058 7.52734 7.2135 6.85026 6.32808Z" fill="#0E1B59" fill-opacity="0.7"/>
</svg>
