<svg width="20" height="20" viewBox="0 0 20 20" fill="none" xmlns="http://www.w3.org/2000/svg">
<path d="M20 10.0029C20 15.4963 15.4599 20.0233 9.98829 19.9999C4.48156 19.9765 0.00588105 15.4963 2.28319e-05 10.0087C-0.0116936 4.5095 4.48742 0.0117187 10 5.69793e-06C15.4892 -0.00585079 20.0059 4.50364 20 10.0029ZM9.36732 10.612C9.46691 10.6237 9.52549 10.6295 9.58407 10.6295C10.9432 10.6295 12.2964 10.6354 13.6555 10.6295C13.7493 10.6295 13.8782 10.6354 13.9367 10.5827C14.0949 10.4421 14.2707 10.284 14.3468 10.0966C14.4405 9.87404 14.3292 9.63393 14.1242 9.5168C13.966 9.42309 13.761 9.37039 13.5735 9.37039C12.9115 9.35282 12.2437 9.36453 11.5817 9.36453C11.2712 9.36453 10.9608 9.36453 10.6386 9.36453C10.6327 9.25326 10.6268 9.17712 10.6268 9.10099C10.6268 8.22251 10.6268 7.34404 10.6268 6.46557C10.6268 5.59881 10.6327 4.72619 10.6268 3.85943C10.6268 3.37334 10.3398 3.09223 9.91214 3.13908C9.5665 3.17422 9.36146 3.44362 9.36146 3.88286C9.36146 5.6398 9.36146 7.39675 9.36146 9.1537C9.36732 9.62807 9.36732 10.1083 9.36732 10.612Z" fill="#0E1B59" fill-opacity="0.7"/>
</svg>
