<svg width="30" height="20" viewBox="0 0 30 20" fill="none" xmlns="http://www.w3.org/2000/svg">
<path d="M11.9191 9.5647C10.386 9.5647 8.85292 9.53577 7.29088 9.5647C6.48093 9.59363 6.22059 9.27543 6.16274 8.46549C5.98918 5.51496 5.96025 5.51496 8.91077 5.51496C11.3695 5.51496 13.8283 5.54389 16.2581 5.48604C17.2706 5.45711 17.6177 5.83316 17.5888 6.81666C17.5598 10.1432 17.7334 9.44899 14.8986 9.53577C13.944 9.59363 12.9316 9.5647 11.9191 9.5647Z" fill="#0E1B59" fill-opacity="0.7"/>
<path d="M11.8899 19.371C10.5014 19.371 9.084 19.3131 7.69552 19.3999C6.59631 19.4578 6.13348 19.1106 6.16241 17.9247C6.24919 14.8874 5.90207 15.3213 8.79473 15.2923C11.2535 15.2634 13.7123 15.3213 16.171 15.2634C17.2124 15.2345 17.6463 15.5237 17.6174 16.6519C17.5595 19.8917 17.762 19.3131 14.8983 19.371C13.9148 19.3999 12.9023 19.371 11.8899 19.371Z" fill="#0E1B59" fill-opacity="0.7"/>
<path d="M18.1092 14.4822C16.605 14.4822 15.1297 14.4532 13.6255 14.4822C12.6709 14.5111 12.3527 14.135 12.3817 13.2094C12.4106 9.79605 12.1792 10.4035 15.0719 10.3746C17.5306 10.3457 19.9894 10.4035 22.4192 10.3457C23.4895 10.3167 23.8656 10.6928 23.8366 11.7631C23.7788 14.8582 24.097 14.4243 21.1175 14.4532C20.134 14.5111 19.1216 14.4822 18.1092 14.4822Z" fill="#0E1B59" fill-opacity="0.7"/>
<path d="M18.0225 4.70509C16.5762 4.70509 15.1299 4.67616 13.7125 4.70509C12.8157 4.73401 12.3818 4.47367 12.3818 3.49017C12.4108 -0.00996119 12.2372 0.626426 15.1877 0.597499C17.5886 0.597499 19.9896 0.655352 22.3905 0.597499C23.4029 0.568572 23.8947 0.828912 23.8657 1.95705C23.7789 5.08113 24.155 4.64723 21.2045 4.67616C20.1342 4.70509 19.0639 4.70509 18.0225 4.70509Z" fill="#0E1B59" fill-opacity="0.7"/>
<path d="M5.72883 0.626382C7.17517 0.626382 8.6215 0.655308 10.0678 0.626382C11.0513 0.597455 11.4563 0.915648 11.4274 1.92808C11.3695 5.25465 11.7167 4.67612 8.67935 4.70504C6.27844 4.73397 3.8486 4.67612 1.44769 4.73397C0.406325 4.7629 -0.0275751 4.47363 0.00135156 3.34549C0.0881316 0.192482 -0.230062 0.655308 2.69153 0.626382C3.70397 0.597455 4.7164 0.626382 5.72883 0.626382Z" fill="#0E1B59" fill-opacity="0.7"/>
<path d="M24.2707 5.5441C25.7459 5.5441 27.2501 5.57302 28.7254 5.5441C29.6799 5.51517 29.9981 5.89122 29.9692 6.81687C29.9114 10.2013 30.2006 9.5649 27.2212 9.59383C24.7335 9.62276 22.2169 9.5649 19.7292 9.62276C18.8614 9.62276 18.5432 9.33349 18.5721 8.43676C18.63 5.02342 18.225 5.63088 21.3491 5.57302C22.3326 5.51517 23.3161 5.5441 24.2707 5.5441Z" fill="#0E1B59" fill-opacity="0.7"/>
<path d="M5.81554 10.4036C7.26187 10.4036 8.7082 10.4326 10.1256 10.4036C11.0223 10.3747 11.4273 10.664 11.4273 11.6186C11.3695 15.0898 11.7166 14.4534 8.65035 14.4823C6.24944 14.5112 3.84852 14.4534 1.44761 14.5112C0.435175 14.5402 -0.027652 14.2798 0.00127471 13.1517C0.0591281 9.91189 -0.172285 10.4326 2.66253 10.4036C3.70389 10.3747 4.77418 10.4036 5.81554 10.4036Z" fill="#0E1B59" fill-opacity="0.7"/>
<path d="M24.3287 15.2922C25.8329 15.2922 27.3082 15.3211 28.8124 15.2922C29.6802 15.2633 30.0273 15.6104 29.9984 16.4782C29.9694 20.0362 30.2298 19.3419 27.2214 19.3998C24.7626 19.4287 22.3039 19.3708 19.8451 19.4287C18.9195 19.4576 18.5723 19.1105 18.6013 18.1849C18.688 14.8583 18.2541 15.4079 21.2914 15.35C22.3039 15.2922 23.3163 15.2922 24.3287 15.2922Z" fill="#0E1B59" fill-opacity="0.7"/>
<path d="M0.145508 9.56472C0.145508 8.14732 0.145508 6.90347 0.145508 5.54392C1.62077 5.54392 2.98032 5.48606 4.3688 5.57284C4.687 5.60177 5.14982 6.09352 5.20767 6.44064C5.69943 9.27546 5.41016 9.56472 2.57535 9.56472C1.79433 9.56472 1.04223 9.56472 0.145508 9.56472Z" fill="#0E1B59" fill-opacity="0.7"/>
<path d="M0.0878906 19.3709C0.0878906 17.9246 0.0878906 16.7386 0.0878906 15.3212C1.56315 15.3212 3.03841 15.2923 4.48474 15.3501C4.74508 15.379 5.15006 15.8708 5.20791 16.189C5.67074 19.1106 5.4104 19.3709 2.4888 19.3709C1.73671 19.3709 0.984617 19.3709 0.0878906 19.3709Z" fill="#0E1B59" fill-opacity="0.7"/>
</svg>
