<svg width="28" height="17" viewBox="0 0 28 17" fill="none" xmlns="http://www.w3.org/2000/svg">
<path d="M6.01025 10.9656H3.51808C1.57273 10.9656 0 12.5383 0 14.4788H9.52832C9.52832 12.5383 7.95559 10.9656 6.01025 10.9656Z" fill="#515B86"/>
<path d="M16.0369 10.9075H11.7156C8.35234 10.9075 5.62305 13.6368 5.62305 17H22.1295C22.1295 13.6368 19.4002 10.9075 16.0369 10.9075Z" fill="#515B86"/>
<path d="M24.0024 10.9656H21.5103C19.5698 10.9656 17.9922 12.5383 17.9922 14.4837H27.5205C27.5205 12.5383 25.9429 10.9656 24.0024 10.9656Z" fill="#515B86"/>
<path d="M4.7665 9.95414C6.14823 9.95414 7.26835 8.83402 7.26835 7.45229C7.26835 6.07056 6.14823 4.95044 4.7665 4.95044C3.38477 4.95044 2.26465 6.07056 2.26465 7.45229C2.26465 8.83402 3.38477 9.95414 4.7665 9.95414Z" fill="#515B86"/>
<path d="M22.7538 9.95414C24.1355 9.95414 25.2557 8.83402 25.2557 7.45229C25.2557 6.07056 24.1355 4.95044 22.7538 4.95044C21.3721 4.95044 20.252 6.07056 20.252 7.45229C20.252 8.83402 21.3721 9.95414 22.7538 9.95414Z" fill="#515B86"/>
<path d="M13.9319 9.90094C16.666 9.90094 18.8824 7.68454 18.8824 4.95047C18.8824 2.2164 16.666 0 13.9319 0C11.1978 0 8.98145 2.2164 8.98145 4.95047C8.98145 7.68454 11.1978 9.90094 13.9319 9.90094Z" fill="#515B86"/>
</svg>
