<svg width="12" height="20" viewBox="0 0 12 20" fill="none" xmlns="http://www.w3.org/2000/svg">
<path d="M10.0344 18.0836C10.0344 12.9414 10.0344 7.80836 10.0344 2.6662C9.62754 2.6662 9.23944 2.6662 8.82942 2.6662C8.82942 2.72669 8.82942 2.78114 8.82942 2.83256C8.82942 7.23667 8.82942 11.6438 8.82942 16.0479C8.82942 17.2639 8.82942 18.4768 8.82942 19.6928C8.82942 19.9439 8.71988 20.0376 8.46635 19.9862C7.55556 19.7957 6.64789 19.599 5.73709 19.4055C4.75743 19.1967 3.77465 18.988 2.79499 18.7793C1.94679 18.5978 1.09859 18.4194 0.250391 18.2349C0.0500782 18.1925 0 18.129 0 17.9293C0 13.4496 0 8.96686 0 4.48713C0 3.7763 0 3.06547 0 2.35464C0 2.13988 0.0469483 2.07938 0.262911 2.02494C2.15962 1.56214 4.05634 1.09935 5.95618 0.636553C6.79499 0.430867 7.63067 0.22518 8.46635 0.0194936C8.69797 -0.0379777 8.83255 0.058816 8.83255 0.288701C8.83255 0.503462 8.83255 0.718223 8.83255 0.951133C9.89671 0.951133 10.9421 0.951133 12 0.951133C12 6.66801 12 12.3728 12 18.0836C11.3521 18.0836 10.7105 18.0836 10.0344 18.0836ZM8.32551 0.545809C8.25978 0.560933 8.20344 0.570008 8.15024 0.585132C7.38341 0.772669 6.61659 0.963232 5.84977 1.15077C4.14085 1.57122 2.4288 1.99166 0.719875 2.41211C0.491393 2.46656 0.491393 2.46958 0.491393 2.69644C0.491393 4.34496 0.491393 5.99348 0.491393 7.642C0.491393 10.9723 0.491393 14.3056 0.488263 17.6359C0.488263 17.7721 0.538341 17.8174 0.660407 17.8416C1.71831 18.0624 2.77621 18.2863 3.83412 18.5131C4.99844 18.7612 6.15962 19.0092 7.32394 19.2603C7.65258 19.3298 7.98435 19.3964 8.32238 19.469C8.32551 13.1532 8.32551 6.85555 8.32551 0.545809ZM11.5055 17.6178C11.5055 12.2064 11.5055 6.81925 11.5055 1.4351C10.6072 1.4351 9.72457 1.4351 8.83881 1.4351C8.83881 1.68616 8.83881 1.92512 8.83881 2.18223C9.40532 2.18223 9.95931 2.18223 10.529 2.18223C10.529 7.33347 10.529 12.4666 10.529 17.6057C10.579 17.6117 10.6135 17.6178 10.6479 17.6178C10.9327 17.6178 11.2113 17.6178 11.5055 17.6178Z" fill="#0E1B59" fill-opacity="0.7"/>
<path d="M8.32545 0.544434C8.32545 6.85417 8.32545 13.1518 8.32545 19.4646C7.98743 19.395 7.65566 19.3254 7.32702 19.2559C6.1627 19.0078 5.00151 18.7568 3.83719 18.5087C2.77929 18.2849 1.72139 18.0611 0.663485 17.8372C0.541419 17.81 0.488211 17.7646 0.491341 17.6315C0.497601 14.3012 0.494471 10.9679 0.494471 7.6376C0.494471 5.98908 0.494471 4.34056 0.494471 2.69204C0.494471 2.46518 0.494471 2.46518 0.722953 2.40771C2.42874 1.99029 4.14079 1.56984 5.84971 1.14939C6.61653 0.961856 7.38336 0.771294 8.15018 0.583756C8.20339 0.571657 8.25973 0.559558 8.32545 0.544434ZM7.7652 9.80336C7.76833 9.36476 7.35519 8.95036 6.90761 8.94734C6.44439 8.94129 6.01247 9.34359 6.00621 9.78218C5.99995 10.2329 6.42248 10.6443 6.89196 10.6503C7.33641 10.6503 7.76207 10.2389 7.7652 9.80336Z" fill="#0E1B59" fill-opacity="0.7"/>
<path d="M11.5055 17.6164C11.2113 17.6164 10.9296 17.6164 10.6479 17.6164C10.6135 17.6164 10.576 17.6104 10.529 17.6043C10.529 12.4652 10.529 7.33208 10.529 2.18084C9.95937 2.18084 9.40538 2.18084 8.83887 2.18084C8.83887 1.92373 8.83887 1.68477 8.83887 1.43372C9.72463 1.43372 10.6073 1.43372 11.5055 1.43372C11.5055 6.81484 11.5055 12.205 11.5055 17.6164Z" fill="#0E1B59" fill-opacity="0.7"/>
</svg>
