<svg width="24" height="20" viewBox="0 0 24 20" fill="none" xmlns="http://www.w3.org/2000/svg">
<path d="M18.3648 16.5128C14.0289 16.5128 9.76894 16.5128 5.43305 16.5128C5.43305 16.9967 5.44254 17.4806 5.43305 17.9644C5.42357 18.4388 5.40459 18.9132 5.36664 19.3781C5.33818 19.7007 5.14842 19.9284 4.82584 19.9284C3.97195 19.9474 3.11805 19.9474 2.27365 19.9094C1.85619 19.8905 1.75182 19.5584 1.75182 19.1884C1.74234 18.4009 1.75182 17.6039 1.72336 16.8164C1.71387 16.6551 1.62848 16.4179 1.50514 16.361C0.632275 15.972 0.309693 15.2225 0.176865 14.3591C-0.069815 12.7557 -0.0508396 11.1428 0.186353 9.54885C0.262255 9.05549 0.670226 8.61905 0.935882 8.16364C1.08769 7.89799 1.3059 7.6608 1.41975 7.37616C2.13133 5.55452 2.82394 3.7234 3.52603 1.90176C3.934 0.848623 5.13894 0.0137045 6.29644 0.00421676C10.0441 -0.00527095 13.7917 0.00421676 17.5394 0.00421676C18.6779 0.00421676 19.8639 0.85811 20.2813 1.9492C21.0024 3.83725 21.7234 5.7253 22.454 7.60387C22.5299 7.78414 22.6343 7.98338 22.7766 8.10672C23.251 8.54315 23.5641 9.05549 23.64 9.69116C23.8297 11.4179 23.9246 13.1542 23.4977 14.8715C23.3364 15.5166 23.0043 16.0195 22.3781 16.3231C22.2263 16.399 22.0935 16.6457 22.084 16.8259C22.0555 17.566 22.0745 18.3155 22.065 19.0555C22.0555 19.7102 21.8753 19.9474 21.2491 19.9758C20.5375 20.0138 19.8259 20.0043 19.1143 19.9664C18.564 19.9379 18.3743 19.7007 18.3743 19.1314C18.3648 18.2775 18.3648 17.4236 18.3648 16.5128ZM11.8562 7.91696C14.7595 7.91696 17.6722 7.91696 20.5754 7.91696C21.2965 7.91696 21.3534 7.82209 21.0973 7.13897C20.4995 5.5735 19.9113 4.01752 19.3136 2.45205C18.972 1.54123 18.2699 1.05735 17.2832 1.05735C16.0498 1.05735 14.8164 1.04786 13.583 1.04786C11.1921 1.04786 8.81068 1.03838 6.41978 1.05735C5.59435 1.06684 4.88277 1.42737 4.56967 2.21485C3.89605 3.88469 3.28883 5.5735 2.66264 7.26231C2.44443 7.84106 2.50135 7.91696 3.12754 7.91696C6.04027 7.91696 8.94351 7.91696 11.8562 7.91696ZM19.1902 10.5356C18.4028 10.5451 17.7007 11.2377 17.7101 12.0157C17.7196 12.8695 18.4028 13.5432 19.2472 13.5527C20.0631 13.5622 20.7462 12.8411 20.7367 11.9777C20.7367 11.1523 20.0631 10.5261 19.1902 10.5356ZM4.64558 10.5261C3.80117 10.5166 3.09908 11.1618 3.08959 11.9777C3.0801 12.8221 3.74424 13.5242 4.59814 13.5432C5.3951 13.5622 6.09719 12.8695 6.12566 12.0441C6.14463 11.2282 5.48049 10.5451 4.64558 10.5261Z" fill="#0E1B59" fill-opacity="0.7"/>
</svg>
