<svg width="23" height="19" viewBox="0 0 23 19" fill="none" xmlns="http://www.w3.org/2000/svg">
<path d="M11.481 18.9937C8.13186 18.9937 4.78272 18.9937 1.42946 18.9937C0.552011 18.9937 0 18.412 0 17.4849C0 13.0546 0 8.62435 0 4.18972C0 3.29755 0.568489 2.70714 1.4171 2.70714C2.33575 2.70714 3.25851 2.70276 4.17716 2.71151C4.32546 2.71151 4.40785 2.66778 4.48612 2.52783C4.92278 1.73624 5.36769 0.949028 5.80435 0.157442C5.87026 0.0393606 5.94029 0 6.06388 0C9.70962 0.0043734 13.3554 0.0043734 17.0011 0C17.1288 0 17.1947 0.0481074 17.2606 0.161816C17.6932 0.949028 18.1381 1.72749 18.5706 2.51471C18.6489 2.65903 18.7354 2.71151 18.8919 2.71151C19.8106 2.70276 20.7334 2.72026 21.652 2.70276C22.5542 2.68527 23.0238 3.45061 22.9991 4.18535C22.9496 5.55422 22.9867 6.92309 22.9826 8.29634C22.9826 11.2134 22.9826 14.1261 22.9826 17.0431C22.9826 17.3318 22.9908 17.6336 22.9373 17.9135C22.8096 18.5738 22.2823 18.9937 21.619 18.9981C19.9383 19.0024 18.2534 18.9981 16.5727 18.9981C14.8755 18.9937 13.1782 18.9937 11.481 18.9937ZM6.33165 10.9554C6.33988 14.0474 8.72506 16.5796 11.6293 16.5752C14.55 16.5708 16.9352 14.0211 16.927 10.9073C16.9187 7.81964 14.5253 5.28307 11.6252 5.28744C8.73742 5.29182 6.32341 7.8765 6.33165 10.9554ZM21.8621 4.74077C21.8703 4.25095 21.5119 3.85734 21.0547 3.85297C20.5727 3.84859 20.2102 4.21159 20.1978 4.71453C20.1855 5.23059 20.5397 5.62419 21.0217 5.62857C21.4831 5.62857 21.8539 5.23934 21.8621 4.74077Z" fill="#0E1B59" fill-opacity="0.7"/>
</svg>
