<svg width="15" height="20" viewBox="0 0 15 20" fill="none" xmlns="http://www.w3.org/2000/svg">
<path d="M0 0C0.227633 0 0.424224 0 0.631163 0C3.3731 0 6.11504 0.0100857 8.85698 0.0100857C12.2508 0.0100857 14.2063 1.56329 14.8168 4.83106C15.1686 6.73727 15.0651 8.6233 14.0511 10.358C13.1406 11.9213 11.8162 12.9803 10.0055 13.414C9.72612 13.4846 9.42606 13.4947 9.13635 13.4947C7.73951 13.5048 6.34267 13.5149 4.94584 13.4947C4.52161 13.4846 4.41814 13.6258 4.42849 14.0091C4.44918 15.996 4.43884 17.9728 4.43884 20C2.95922 20 1.50031 20 0.0103469 20C0 13.3737 0 6.7171 0 0ZM4.45953 9.79324C5.67012 9.79324 6.81863 9.84367 7.96714 9.78316C9.21912 9.72264 10.1607 8.92587 10.378 7.72567C10.4918 7.04992 10.4918 6.31367 10.378 5.63792C10.1917 4.62935 9.52953 3.88301 8.4638 3.78215C7.14973 3.67121 5.82533 3.75189 4.46988 3.75189C4.45953 5.75895 4.45953 7.76601 4.45953 9.79324Z" fill="#0E1B59" fill-opacity="0.7"/>
</svg>
