<svg width="19" height="20" viewBox="0 0 19 20" fill="none" xmlns="http://www.w3.org/2000/svg">
<path d="M18.3966 20C17.5898 20 16.8304 20 16.0117 20C15.8811 18.6592 15.7506 17.3302 15.6201 16.0013C15.5608 16.0013 15.5133 16.0013 15.454 16.0013C15.454 17.3184 15.454 18.6354 15.454 19.9881C12.9147 19.9881 10.4942 19.9881 7.94305 19.9881C7.94305 18.0659 7.94305 16.1199 7.94305 14.174C7.88372 14.1502 7.8244 14.1384 7.76507 14.1146C7.26671 14.5655 6.75649 15.0164 6.27 15.4792C4.7868 16.8437 3.3036 18.2201 1.8204 19.5728C1.33391 20.0237 0.799961 20.0593 0.384665 19.7152C-0.054362 19.3474 -0.149287 18.7422 0.266009 18.2913C2.55607 15.7877 4.86986 13.2959 7.19552 10.816C8.02611 9.93795 9.12961 9.58198 10.3043 9.58198C11.5621 9.58198 12.8435 9.55825 14.0776 9.72437C16.0117 9.99728 17.5305 11.5517 17.7084 13.6044C17.8746 15.5266 18.1356 17.4489 18.361 19.3711C18.3848 19.5847 18.3848 19.7745 18.3966 20ZM15.3828 10.5194C15.1929 10.4244 15.0743 10.3651 14.9438 10.3176C14.0301 9.96168 14.042 9.96168 13.5555 10.816C11.9774 13.64 10.3992 16.464 8.80924 19.288C8.70245 19.4779 8.60752 19.6915 8.46514 19.9644C8.86857 19.9644 9.16521 19.9406 9.44998 19.9762C9.92461 20.0356 10.1975 19.8576 10.423 19.4186C10.8145 18.6236 11.2773 17.8642 11.7163 17.0929C12.9266 14.9096 14.1369 12.7382 15.3828 10.5194Z" fill="#0E1B59" fill-opacity="0.7"/>
<path d="M11.6684 4.15947C12.6413 4.15947 13.6024 4.17133 14.5754 4.15947C14.8958 4.15947 15.0263 4.26626 15.0975 4.57476C15.3704 5.86811 14.8365 7.26825 13.733 8.06325C12.5464 8.91757 11.0751 8.96503 9.84105 8.20564C8.65449 7.46997 8.01375 6.08169 8.21546 4.75275C8.28665 4.31372 8.46464 4.12387 8.93926 4.1476C9.85291 4.19506 10.7666 4.15947 11.6684 4.15947Z" fill="#0E1B59" fill-opacity="0.7"/>
<path d="M15.2638 0.908253C15.1689 1.84564 15.0739 2.72369 14.9909 3.62547C12.7839 3.62547 10.6125 3.62547 8.36988 3.62547C8.27496 2.73556 8.16817 1.84564 8.07324 0.920119C9.27167 0.611613 10.4345 0.303108 11.5973 0.00646776C11.7041 -0.0172634 11.8228 0.030199 11.9414 0.0539301C13.0212 0.338704 14.1128 0.623479 15.2638 0.908253Z" fill="#0E1B59" fill-opacity="0.7"/>
</svg>
