<svg width="22" height="22" viewBox="0 0 22 22" fill="none" xmlns="http://www.w3.org/2000/svg">
<circle cx="11" cy="11" r="11" fill="#0E1B59" fill-opacity="0.7"/>
<path d="M0 11.621C0 11.2085 0 10.7915 0 10.379C0.0133065 10.3081 0.0310484 10.2371 0.0399194 10.1661C0.133065 9.57621 0.18629 8.97742 0.319355 8.40081C1.30847 4.19597 4.84355 0.882661 9.08831 0.177419C9.51411 0.106452 9.94879 0.0576613 10.379 0C10.7915 0 11.2085 0 11.621 0C11.6875 0.0133065 11.7496 0.0310484 11.8161 0.0399194C12.3484 0.119758 12.8851 0.164113 13.4129 0.275C17.6532 1.16653 21.1262 4.79919 21.8226 9.07056C21.8935 9.50524 21.9423 9.94435 22 10.379C22 10.7915 22 11.2085 22 11.621C21.9867 11.6919 21.9645 11.7629 21.9601 11.8339C21.8359 13.5238 21.3569 15.1117 20.4786 16.5621C18.7399 19.4363 16.2161 21.1972 12.9117 21.8226C12.4859 21.9024 12.0512 21.9423 11.621 22C11.2085 22 10.7915 22 10.379 22C10.3125 21.9867 10.2504 21.969 10.1839 21.9601C9.65161 21.8802 9.11492 21.8359 8.5871 21.725C4.34234 20.829 0.87379 17.2008 0.177419 12.9294C0.106452 12.4948 0.0576613 12.0556 0 11.621ZM16.3004 11.3593C16.256 13.1202 15.9012 14.8012 15.2581 16.3669C16.1185 16.8371 16.9435 17.2895 17.7952 17.7552C19.5028 15.9988 20.4431 13.8653 20.5673 11.3593C19.1347 11.3593 17.7331 11.3593 16.3004 11.3593ZM1.42823 11.3593C1.56129 13.8742 2.49274 16.0077 4.2004 17.7508C5.06532 17.2762 5.89032 16.8282 6.7375 16.3625C6.08548 14.7879 5.74395 13.1024 5.69516 11.3548C4.27137 11.3593 2.86976 11.3593 1.42823 11.3593ZM15.5109 6.25847C16.0077 7.64677 16.256 9.12379 16.3048 10.6319C17.7419 10.6319 19.148 10.6319 20.5673 10.6319C20.4565 8.33871 19.6492 6.35161 18.1899 4.67944C17.2806 5.21613 16.4113 5.73065 15.5109 6.25847ZM5.6996 10.6363C5.73952 9.11048 6.00121 7.63347 6.48911 6.25847C5.58427 5.72621 4.70605 5.20726 3.81895 4.68387C2.49274 6.00564 1.26411 9.08831 1.46371 10.6363C2.86089 10.6363 4.2625 10.6363 5.6996 10.6363ZM7.42056 16.1806C8.47621 15.8524 9.54073 15.675 10.6363 15.6395C10.6363 14.2024 10.6363 12.7875 10.6363 11.3726C9.21694 11.3726 7.81089 11.3726 6.4004 11.3726C6.44919 13.0359 6.77298 14.6238 7.42056 16.1806ZM15.5996 11.3681C14.1758 11.3681 12.7698 11.3681 11.3593 11.3681C11.3593 12.7919 11.3593 14.2024 11.3593 15.6395C12.4593 15.6661 13.5282 15.8569 14.5794 16.1762C15.227 14.6238 15.5552 13.0315 15.5996 11.3681ZM11.3637 7.0746C11.3637 8.28548 11.3637 9.45645 11.3637 10.6319C12.7831 10.6319 14.1847 10.6319 15.604 10.6319C15.5597 9.19032 15.3246 7.80202 14.8323 6.44032C13.7012 6.82177 12.5524 7.03024 11.3637 7.0746ZM10.6407 10.6363C10.6407 9.44758 10.6407 8.27218 10.6407 7.0746C9.45202 7.03468 8.29879 6.82177 7.16774 6.44032C6.6754 7.81532 6.43589 9.19919 6.4004 10.6363C7.81976 10.6363 9.21694 10.6363 10.6407 10.6363ZM11.3637 1.41492C11.3637 3.1004 11.3637 4.72823 11.3637 6.35605C12.1266 6.40484 14.0206 6.06331 14.5528 5.75726C13.8298 4.08065 12.8052 2.62137 11.3637 1.41492ZM10.6363 1.41492C9.19476 2.62581 8.16573 4.08508 7.43831 5.78831C8.48952 6.14758 9.54516 6.34274 10.6363 6.36935C10.6363 4.71492 10.6363 3.0871 10.6363 1.41492ZM9.4121 1.57903C7.79758 1.73427 4.98548 3.17581 4.36452 4.14718C5.10524 4.71048 5.89919 5.18508 6.77742 5.54435C7.41169 4.06734 8.26331 2.75 9.4121 1.57903ZM17.6399 4.12056C16.5532 2.92742 13.7544 1.52137 12.6145 1.60565C13.7411 2.75444 14.5927 4.07177 15.2181 5.53105C15.8036 5.35363 17.1786 4.55524 17.6399 4.12056ZM7.70887 16.8238C8.43629 18.2831 9.37218 19.5383 10.6363 20.5851C10.6363 19.1391 10.6363 17.7464 10.6363 16.3403C9.63831 16.3669 8.67581 16.5222 7.70887 16.8238ZM11.3637 20.5895C12.6323 19.5294 13.5726 18.2786 14.2823 16.8371C13.6879 16.5754 11.856 16.2827 11.3637 16.3669C11.3637 17.7597 11.3637 19.148 11.3637 20.5895ZM4.75484 18.2254C5.75282 19.2411 8.40081 20.4653 9.38992 20.3944C8.42298 19.4097 7.65121 18.3008 7.02581 17.0145C6.2629 17.4226 5.52218 17.8173 4.75484 18.2254ZM14.9742 17.0145C14.3444 18.3141 13.5681 19.4185 12.6278 20.4121C14.3577 20.1238 15.8746 19.4141 17.2629 18.2387C16.4734 17.8129 15.7371 17.4226 14.9742 17.0145Z" fill="white"/>
</svg>
