<svg width="30" height="30" viewBox="0 0 30 30" fill="none" xmlns="http://www.w3.org/2000/svg">
<path d="M30 15C29.9915 23.3428 23.2832 30.0085 14.9234 30C6.65721 29.9915 -0.00850588 23.2492 6.9767e-06 14.9319C0.0170342 6.61467 6.75085 -0.0169944 15.1873 3.20635e-05C23.3258 0.0170585 30.0085 6.78493 30 15ZM15.0255 2.22194C7.99376 2.08573 2.22191 8.05338 2.20489 14.9404C2.17935 21.9467 8.0193 27.7781 14.9659 27.7951C21.9552 27.8122 27.7866 22.0148 27.8121 15.0256C27.8292 7.99379 21.9296 2.10276 15.0255 2.22194Z" fill="#2596FF"/>
<path d="M20.7466 23.9473C19.2228 24.0154 17.8522 23.4535 16.4901 22.8916C14.132 21.9126 12.0889 20.4569 10.216 18.7288C8.48785 17.1283 7.0236 15.3491 6.02758 13.2123C5.54233 12.1822 5.12519 11.1436 5.1933 9.9518C5.23586 9.1686 5.46572 8.5131 5.95096 7.9257C6.34256 7.45748 6.75119 7.00629 7.15981 6.5551C7.76424 5.87405 8.62406 5.83149 9.31361 6.44443C10.1309 7.16804 10.9566 7.88313 11.7824 8.59823C12.4805 9.19414 12.5911 9.99437 12.0208 10.701C11.527 11.3224 10.9992 11.9183 10.4629 12.4972C10.2245 12.7526 10.2586 12.9229 10.4458 13.1782C12.2081 15.596 14.4214 17.4773 17.0435 18.899C17.8948 19.3587 17.9033 19.3502 18.5332 18.6521C18.9163 18.235 19.2654 17.7838 19.657 17.3752C20.2529 16.7367 21.0361 16.7112 21.7001 17.2901C22.5684 18.0392 23.4453 18.7883 24.2966 19.5545C24.9436 20.1419 24.9946 20.8655 24.4668 21.5636C23.9816 22.2106 23.4282 22.8065 22.8664 23.3854C22.4918 23.7685 22.0236 23.9473 21.4873 23.9558C21.2319 23.9473 20.985 23.9473 20.7466 23.9473Z" fill="#2596FF"/>
</svg>
