<svg width="58" height="52" viewBox="0 0 58 52" fill="none" xmlns="http://www.w3.org/2000/svg">
<path d="M22.7311 51.9043C18.6094 51.9043 14.5864 51.9043 10.514 51.9043C10.514 44.4295 10.514 36.9547 10.514 29.4059C6.98468 29.4059 3.52936 29.4059 0.0740433 29.4059C0.0493625 29.3565 0.0246809 29.2825 0 29.2332C9.62553 19.5135 19.2511 9.79373 28.9506 0C38.6008 9.74439 48.2511 19.4888 58 29.3565C54.3966 29.3565 50.9166 29.3565 47.4119 29.3565C47.4119 36.93 47.4119 44.3802 47.4119 51.9043C47.1404 51.929 46.943 51.929 46.7455 51.929C43.1174 51.929 39.4894 51.929 35.8366 51.9537C35.2936 51.9537 35.1208 51.8056 35.1208 51.2629C35.1455 44.9476 35.1455 38.6075 35.1208 32.2922C35.1208 31.4288 35.1209 31.4288 34.2323 31.4288C30.6289 31.4288 27.0502 31.4534 23.4468 31.4041C22.8545 31.4041 22.7064 31.5521 22.7064 32.1442C22.7311 38.4595 22.7311 44.7502 22.7311 51.0656C22.7311 51.3123 22.7311 51.5836 22.7311 51.9043Z" fill="#2596FF"/>
</svg>
