<svg width="51" height="52" viewBox="0 0 51 52" fill="none" xmlns="http://www.w3.org/2000/svg">
<path d="M0 0C8.67113 0 17.3155 0 26 0C26 17.3423 26 34.6443 26 52C17.3289 52 8.69789 52 0 52C0 34.6845 0 17.369 0 0ZM9.63459 19.6189C7.60062 19.6189 5.6737 19.6055 3.74678 19.6322C3.62635 19.6322 3.39887 19.9001 3.38549 20.0474C3.35872 21.8553 3.35872 23.6498 3.38549 25.4576C3.38549 25.6183 3.67988 25.913 3.84045 25.913C5.62018 25.9531 7.3999 25.9531 9.17962 25.9263C9.32681 25.9263 9.60782 25.6719 9.60782 25.5246C9.63459 23.5962 9.63459 21.6678 9.63459 19.6189ZM22.6145 12.9498C22.6145 10.9142 22.6279 8.95905 22.5878 6.99047C22.5878 6.85655 22.2934 6.6289 22.1194 6.6155C20.3664 6.58872 18.6001 6.60211 16.8338 6.58872C16.4457 6.58872 16.3253 6.74942 16.3253 7.09761C16.3253 8.86531 16.3387 10.6196 16.3119 12.3873C16.3119 12.856 16.5126 12.9498 16.9274 12.9364C17.7036 12.923 18.4931 12.9364 19.2692 12.9364C20.3798 12.9498 21.4637 12.9498 22.6145 12.9498ZM22.5878 19.6189C20.5805 19.6189 18.6402 19.6055 16.7133 19.6456C16.5929 19.6456 16.3654 20.0072 16.3654 20.1947C16.3387 21.9088 16.3654 23.623 16.3387 25.3371C16.3387 25.8058 16.4992 25.9531 16.9542 25.9531C18.0916 25.9263 19.229 25.9397 20.3664 25.9397C21.089 25.9397 21.825 25.9397 22.5878 25.9397C22.5878 23.8105 22.5878 21.7615 22.5878 19.6189ZM3.42563 6.65568C3.42563 8.77157 3.42563 10.8339 3.42563 12.9498C5.39269 12.9498 7.30623 12.9498 9.21976 12.9498C9.63459 12.9498 9.64797 12.6552 9.64797 12.3472C9.64797 11.1151 9.64797 9.89647 9.64797 8.66443C9.64797 8.00824 9.64797 7.33866 9.64797 6.64229C7.52033 6.65568 5.49974 6.65568 3.42563 6.65568ZM16.352 38.8761C18.3592 38.8761 20.2862 38.8761 22.2265 38.8761C22.668 38.8761 22.6145 38.5279 22.6145 38.2467C22.6145 36.8674 22.6145 35.488 22.6145 34.1087C22.6145 33.6266 22.6145 33.1445 22.6145 32.6088C20.5805 32.6088 18.6402 32.5954 16.7133 32.6222C16.5929 32.6222 16.3654 32.89 16.3654 33.0373C16.352 34.9524 16.352 36.8674 16.352 38.8761ZM3.35872 38.8761C5.37931 38.8761 7.31961 38.8895 9.24653 38.8493C9.38034 38.8493 9.60782 38.5413 9.60782 38.3806C9.63459 36.6129 9.6212 34.8586 9.6212 33.0909C9.6212 32.7695 9.52754 32.5954 9.16624 32.5954C7.38652 32.6088 5.59341 32.5954 3.81369 32.5954C3.46577 32.5954 3.34534 32.7427 3.34534 33.0775C3.37211 34.9791 3.35872 36.8674 3.35872 38.8761Z" fill="#2596FF"/>
<path d="M51 20V52H44.0932V39.0306H35.9182V52H29V20H40H51Z" fill="#2596FF"/>
</svg>
