<svg width="67" height="54" viewBox="0 0 67 54" fill="none" xmlns="http://www.w3.org/2000/svg">
<path d="M39.5807 43.3245C41.2383 44.0717 43.0235 44.5698 44.9361 44.7774C51.8217 46.6868 63.0851 50.0075 65.3803 52C65.3803 52 56.8796 43.4076 59.3448 39.5472C59.5573 39.3397 59.7698 39.0906 59.9824 38.8415C60.3224 38.551 60.4924 38.3849 60.4924 38.2189C62.7026 35.3963 64.0202 31.8265 64.0202 28.0076C64.0202 18.7096 56.2846 11.1549 46.7638 11.1549C37.243 11.1549 29.4648 18.6266 29.4648 27.9661C29.4648 34.7736 33.5877 40.6264 39.5807 43.3245C39.5382 43.283 39.5382 43.283 39.5807 43.3245C39.5382 43.283 39.5382 43.283 39.5807 43.3245Z" fill="#EAEEEF"/>
<path d="M39.5807 43.3245C41.2383 44.0717 43.0235 44.5698 44.9361 44.7774C51.8217 46.6868 63.0851 50.0075 65.3803 52C65.3803 52 56.8796 43.4076 59.3448 39.5472C59.5573 39.3397 59.7698 39.0906 59.9824 38.8415C60.3224 38.551 60.4924 38.3849 60.4924 38.2189C62.7026 35.3963 64.0202 31.8265 64.0202 28.0076C64.0202 18.7096 56.2846 11.1549 46.7638 11.1549C37.243 11.1549 29.4648 18.6266 29.4648 27.9661C29.4648 34.7736 33.5877 40.6264 39.5807 43.3245ZM39.5807 43.3245C39.5382 43.283 39.5382 43.283 39.5807 43.3245ZM39.5807 43.3245C39.5382 43.283 39.5382 43.283 39.5807 43.3245Z" stroke="#2596FF" stroke-width="2.3" stroke-miterlimit="10" stroke-linecap="round" stroke-linejoin="round"/>
<path d="M28.3364 34.2111C26.6443 34.9583 24.822 35.4564 22.8696 35.664C15.8841 37.5319 4.38633 40.8526 2 42.8451C2 42.8451 10.6776 34.2527 8.16108 30.3923C7.94414 30.1847 7.7272 29.9357 7.51026 29.6866C7.16316 29.3961 6.98961 29.23 6.98961 29.064C4.73344 26.2414 3.38841 22.6716 3.38841 18.8527C3.38841 9.55467 11.285 2 21.0039 2C30.7228 2 38.6194 9.55467 38.6194 18.8527C38.6628 25.6602 34.4541 31.5546 28.3364 34.2111C28.3798 34.2111 28.3798 34.2111 28.3364 34.2111C28.3798 34.2111 28.3798 34.2111 28.3364 34.2111Z" fill="#EAEEEF"/>
<path d="M28.3364 34.2111C26.6443 34.9583 24.822 35.4564 22.8696 35.664C15.8841 37.5319 4.38633 40.8526 2 42.8451C2 42.8451 10.6776 34.2527 8.16108 30.3923C7.94414 30.1847 7.7272 29.9357 7.51026 29.6866C7.16316 29.3961 6.98961 29.23 6.98961 29.064C4.73344 26.2414 3.38841 22.6716 3.38841 18.8527C3.38841 9.55467 11.285 2 21.0039 2C30.7228 2 38.6194 9.55467 38.6194 18.8527C38.6628 25.6602 34.4541 31.5546 28.3364 34.2111ZM28.3364 34.2111C28.3798 34.2111 28.3798 34.2111 28.3364 34.2111ZM28.3364 34.2111C28.3798 34.2111 28.3798 34.2111 28.3364 34.2111Z" stroke="#2596FF" stroke-width="2.3" stroke-miterlimit="10" stroke-linecap="round" stroke-linejoin="round"/>
</svg>
