<svg width="59" height="54" viewBox="0 0 59 54" fill="none" xmlns="http://www.w3.org/2000/svg">
<path d="M47.7973 28.0538H57.0005V4.11133H3.97266V28.0538H45.0802L47.5782 25.6731" stroke="#2596FF" stroke-width="2.3" stroke-miterlimit="10" stroke-linecap="round" stroke-linejoin="round"/>
<path d="M11.6855 14.6676V4.11133" stroke="#2596FF" stroke-width="2.3" stroke-miterlimit="10" stroke-linecap="round" stroke-linejoin="round"/>
<path d="M14.1397 15.0718L11.6855 17.5873V28.0537V52.4904H35.8767V34.3426" stroke="#2596FF" stroke-width="2.3" stroke-miterlimit="10" stroke-linecap="round" stroke-linejoin="round"/>
<path d="M31.7129 2V5.9979" stroke="#2596FF" stroke-width="2.3" stroke-miterlimit="10" stroke-linecap="round" stroke-linejoin="round"/>
<path d="M37.4102 2V5.9979" stroke="#2596FF" stroke-width="2.3" stroke-miterlimit="10" stroke-linecap="round" stroke-linejoin="round"/>
<path d="M2 18.9799H5.90039" stroke="#2596FF" stroke-width="2.3" stroke-miterlimit="10" stroke-linecap="round" stroke-linejoin="round"/>
<path d="M2 13.1403H5.90039" stroke="#2596FF" stroke-width="2.3" stroke-miterlimit="10" stroke-linecap="round" stroke-linejoin="round"/>
<path d="M35.8773 28.0537V31.5126L33.8613 33.5789" stroke="#2596FF" stroke-width="2.3" stroke-miterlimit="10" stroke-linecap="round" stroke-linejoin="round"/>
<path d="M35.877 37.9363H40.8291L43.108 40.2272" stroke="#2596FF" stroke-width="2.3" stroke-miterlimit="10" stroke-linecap="round" stroke-linejoin="round"/>
<path d="M43.4141 37.9363H48.673V52.4904" stroke="#2596FF" stroke-width="2.3" stroke-miterlimit="10" stroke-linecap="round" stroke-linejoin="round"/>
<path d="M56.9997 28.0537V52.4903H53.7129" stroke="#2596FF" stroke-width="2.3" stroke-miterlimit="10" stroke-linecap="round" stroke-linejoin="round"/>
<path d="M35.877 52.4904H50.9964L53.5821 49.7952" stroke="#2596FF" stroke-width="2.3" stroke-miterlimit="10" stroke-linecap="round" stroke-linejoin="round"/>
<path d="M10.0195 43.1919H13.9199" stroke="#2596FF" stroke-width="2.3" stroke-miterlimit="10" stroke-linecap="round" stroke-linejoin="round"/>
<path d="M10.0195 37.3522H13.9199" stroke="#2596FF" stroke-width="2.3" stroke-miterlimit="10" stroke-linecap="round" stroke-linejoin="round"/>
</svg>
