<svg width="48" height="54" viewBox="0 0 48 54" fill="none" xmlns="http://www.w3.org/2000/svg">
<path d="M46.3621 2H2V6.19753H46.3621V2Z" stroke="#2596FF" stroke-width="2.3" stroke-miterlimit="10" stroke-linecap="round" stroke-linejoin="round"/>
<path d="M5.29297 9.57202H43.1119V52H28.2148V40.6831H19.9432V52H5.29297V9.57202Z" stroke="#2596FF" stroke-width="2.3" stroke-miterlimit="10" stroke-linecap="round" stroke-linejoin="round"/>
<path d="M11.3418 6.19751V9.57199" stroke="#2596FF" stroke-width="2.3" stroke-miterlimit="10" stroke-linecap="round" stroke-linejoin="round"/>
<path d="M36.6914 6.19751V9.57199" stroke="#2596FF" stroke-width="2.3" stroke-miterlimit="10" stroke-linecap="round" stroke-linejoin="round"/>
<path d="M15.0862 15.7037H8.54297V20.9301H15.0862V15.7037Z" stroke="#2596FF" stroke-width="2.3" stroke-miterlimit="10" stroke-linecap="round" stroke-linejoin="round"/>
<path d="M15.0862 28.1729H8.54297V33.3992H15.0862V28.1729Z" stroke="#2596FF" stroke-width="2.3" stroke-miterlimit="10" stroke-linecap="round" stroke-linejoin="round"/>
<path d="M15.0862 40.6008H8.54297V45.8272H15.0862V40.6008Z" stroke="#2596FF" stroke-width="2.3" stroke-miterlimit="10" stroke-linecap="round" stroke-linejoin="round"/>
<path d="M39.9827 15.7037H33.4395V20.9301H39.9827V15.7037Z" stroke="#2596FF" stroke-width="2.3" stroke-miterlimit="10" stroke-linecap="round" stroke-linejoin="round"/>
<path d="M39.9827 28.1729H33.4395V33.3992H39.9827V28.1729Z" stroke="#2596FF" stroke-width="2.3" stroke-miterlimit="10" stroke-linecap="round" stroke-linejoin="round"/>
<path d="M39.9827 40.6008H33.4395V45.8272H39.9827V40.6008Z" stroke="#2596FF" stroke-width="2.3" stroke-miterlimit="10" stroke-linecap="round" stroke-linejoin="round"/>
<path d="M27.4319 15.7037H20.8887V20.9301H27.4319V15.7037Z" stroke="#2596FF" stroke-width="2.3" stroke-miterlimit="10" stroke-linecap="round" stroke-linejoin="round"/>
<path d="M27.4319 28.1729H20.8887V33.3992H27.4319V28.1729Z" stroke="#2596FF" stroke-width="2.3" stroke-miterlimit="10" stroke-linecap="round" stroke-linejoin="round"/>
</svg>
