<svg width="53" height="54" viewBox="0 0 53 54" fill="none" xmlns="http://www.w3.org/2000/svg">
<path d="M17.6789 33.3579C26.3382 33.3579 33.3579 26.3382 33.3579 17.6789C33.3579 9.0197 26.3382 2 17.6789 2C9.0197 2 2 9.0197 2 17.6789C2 26.3382 9.0197 33.3579 17.6789 33.3579Z" stroke="#2596FF" stroke-width="2.3" stroke-miterlimit="10" stroke-linecap="round" stroke-linejoin="round"/>
<path d="M47.0106 51.188L32.3245 36.5019C31.2903 35.4677 31.2903 33.7302 32.3245 32.696C33.3587 31.6617 35.0962 31.6617 36.1305 32.696L50.8579 47.4234C51.8922 48.4577 51.8922 50.1952 50.8579 51.2294C49.7823 52.2636 48.0862 52.2636 47.0106 51.188Z" stroke="#2596FF" stroke-width="2.3" stroke-miterlimit="10" stroke-linecap="round" stroke-linejoin="round"/>
<path d="M28.3926 29.0968L32.2399 32.7373" stroke="#2596FF" stroke-width="2.3" stroke-miterlimit="10" stroke-linecap="round" stroke-linejoin="round"/>
<path d="M38.3216 34.8472L34.5156 38.6945" stroke="#2596FF" stroke-width="2.3" stroke-miterlimit="10" stroke-linecap="round" stroke-linejoin="round"/>
<path d="M23.9253 14.4521H11.1836V27.1939H23.9253V14.4521Z" stroke="#2596FF" stroke-width="2.3" stroke-miterlimit="10" stroke-linecap="round" stroke-linejoin="round"/>
<path d="M20.1602 18.2168H15.3613V23.0156H20.1602V18.2168Z" stroke="#2596FF" stroke-width="2.3" stroke-miterlimit="10" stroke-linecap="round" stroke-linejoin="round"/>
<path d="M17.6794 6.92297L26.5738 14.4522H8.57812L17.6794 6.92297Z" stroke="#2596FF" stroke-width="2.3" stroke-miterlimit="10" stroke-linecap="round" stroke-linejoin="round"/>
</svg>
